<svg viewBox="4.187 -3.14 1124.611 257.059" xmlns="http://www.w3.org/2000/svg">
   <style>
    :root[data-color-mode="light"] {
      --logo-fill-color: black;
    }
    :root[data-color-mode="dark"] {
        --logo-fill-color: white;
    }
    .logo {
      fill: var(--logo-fill-color);
    }
  </style>
  <g transform="matrix(0.1, 0, 0, -0.1, -402.352966, 677.647034)" class="logo">
    <path d="M14620 6710 c0 -29 2 -30 45 -30 l45 0 0 -120 0 -120 40 0 40 0 0 120 0 120 45 0 c43 0 45 1 45 30 l0 30 -130 0 -130 0 0 -30z"/>
    <path d="M14910 6590 l0 -150 40 0 40 0 0 83 0 82 31 -52 c26 -45 35 -53 60 -53 24 0 33 8 59 53 l30 52 0 -82 0 -83 40 0 40 0 0 150 0 150 -43 0 -42 0 -40 -75 c-22 -41 -42 -75 -45 -75 -3 0 -23 34 -44 75 l-40 75 -43 0 -43 0 0 -150z"/>
    <path d="M9349 6489 c-92 -8 -141 -23 -196 -60 -56 -39 -99 -93 -126 -159 -21 -52 -22 -71 -25 -393 -2 -216 1 -357 8 -390 34 -166 137 -262 305 -287 39 -5 147 -10 240 -10 94 0 175 -4 181 -8 29 -19 34 -55 34 -267 0 -212 -5 -248 -34 -267 -6 -4 -68 -8 -137 -8 -165 0 -159 -6 -159 167 0 99 -3 132 -13 136 -17 6 -403 8 -419 2 -13 -5 -14 -58 -4 -285 6 -158 67 -270 177 -325 80 -41 127 -46 428 -46 315 0 353 5 443 63 55 35 108 110 133 188 15 46 19 104 23 352 2 188 0 328 -7 380 -25 187 -121 298 -287 333 -46 10 -130 15 -249 15 -147 0 -185 3 -203 16 -22 15 -22 19 -22 238 0 203 2 224 18 239 15 14 41 17 134 17 148 0 148 0 148 -133 l0 -97 225 0 225 0 0 28 c-1 15 -5 86 -9 157 -11 153 -32 220 -92 288 -44 51 -138 103 -202 112 -59 9 -446 11 -538 4z"/>
    <path d="M11085 6490 c-281 -5 -304 -6 -355 -27 -109 -45 -189 -158 -209 -298 -12 -88 -13 -1457 -1 -1541 25 -172 109 -277 254 -319 47 -14 109 -17 374 -16 301 0 322 1 386 22 76 25 155 88 185 148 52 102 51 88 51 931 0 843 1 830 -51 931 -31 63 -113 127 -188 148 -90 26 -104 27 -446 21z m205 -330 c20 -20 20 -33 20 -769 0 -668 -2 -751 -16 -765 -24 -24 -53 -28 -174 -24 -97 3 -114 6 -126 22 -12 17 -14 138 -14 768 0 735 0 748 20 768 18 18 33 20 145 20 112 0 127 -2 145 -20z"/>
    <path d="M4168 5390 l2 -1070 230 0 230 0 0 420 0 420 235 0 235 0 0 195 0 195 -235 0 -235 0 0 255 0 255 250 0 250 0 0 200 0 200 -482 0 -483 0 3 -1070z"/>
    <path d="M5410 5390 l0 -1070 230 0 230 0 0 1070 0 1070 -230 0 -230 0 0 -1070z"/>
    <path d="M6210 5390 l0 -1070 235 0 235 0 0 439 0 439 126 -1 c112 -2 127 -4 140 -21 12 -16 14 -93 14 -438 l0 -418 236 0 235 0 -3 468 c-3 422 -5 471 -21 506 -26 60 -64 104 -104 125 l-37 18 41 26 c54 34 99 91 120 152 15 42 18 87 18 295 0 211 -3 253 -18 300 -27 81 -71 144 -130 184 -93 63 -117 66 -629 66 l-458 0 0 -1070z m751 741 l24 -19 0 -277 0 -277 -24 -19 c-20 -16 -40 -19 -152 -19 l-129 0 0 315 0 315 129 0 c112 0 132 -3 152 -19z"/>
    <path d="M7750 5390 l0 -1070 490 0 490 0 0 190 0 190 -260 0 -260 0 0 260 0 260 240 0 240 0 0 180 0 180 -240 0 -240 0 0 250 c0 193 3 250 13 250 6 0 122 2 257 3 l245 2 3 188 2 187 -490 0 -490 0 0 -1070z"/>
    <path d="M12120 5390 l0 -1070 230 0 230 0 0 420 0 420 235 0 235 0 0 195 0 195 -235 0 -235 0 0 255 0 255 253 2 252 3 3 198 2 197 -485 0 -485 0 0 -1070z"/>
    <path d="M13230 6265 l0 -195 175 0 175 0 0 -875 0 -875 235 0 235 0 0 875 0 875 175 0 176 0 -1 195 -2 195 -584 0 -584 0 0 -195z"/>
  </g>
</svg>
